<svg width="252" height="47" viewBox="0 0 252 47" fill="none" xmlns="http://www.w3.org/2000/svg">
<path d="M0.108 39L10.044 14.988H15.912L25.848 39H19.872L17.532 33.456H8.424L6.084 39H0.108ZM12.996 20.784L9.576 29.172H16.416L12.996 20.784ZM30.5885 39V14.988H44.1605C46.2965 14.988 47.8445 15.24 48.8045 15.744C49.9325 16.296 50.7845 17.22 51.3605 18.516C51.7685 19.404 51.9725 20.328 51.9725 21.288C51.9725 22.536 51.6365 23.7 50.9645 24.78C50.3165 25.86 49.4885 26.604 48.4805 27.012C50.8085 28.068 51.9725 29.952 51.9725 32.664C51.9725 34.224 51.6005 35.532 50.8565 36.588C50.2085 37.5 49.3805 38.136 48.3725 38.496C47.3645 38.832 45.8645 39 43.8725 39H30.5885ZM35.7005 24.852H42.6485C43.3925 24.852 43.9205 24.816 44.2325 24.744C44.5685 24.672 44.8925 24.516 45.2045 24.276C45.9485 23.7 46.3205 22.908 46.3205 21.9C46.3205 20.94 45.9725 20.232 45.2765 19.776C44.7725 19.44 43.9325 19.272 42.7565 19.272H35.7005V24.852ZM35.7005 34.716H42.6485C43.3925 34.716 43.9325 34.68 44.2685 34.608C44.6045 34.536 44.9165 34.38 45.2045 34.14C45.9485 33.564 46.3205 32.772 46.3205 31.764C46.3205 30.804 45.9725 30.096 45.2765 29.64C44.7725 29.304 43.9325 29.136 42.7565 29.136H35.7005V34.716ZM68.4332 14.844C70.8332 14.844 72.9452 15.252 74.7692 16.068C76.9052 17.052 78.4052 18.696 79.2692 21C79.9412 22.8 80.2772 24.912 80.2772 27.336C80.2772 29.784 79.8692 31.908 79.0532 33.708C78.0212 35.844 76.4372 37.344 74.3012 38.208C72.7172 38.832 70.8932 39.144 68.8292 39.144C66.1172 39.144 63.7652 38.64 61.7732 37.632C60.0932 36.792 58.8092 35.472 57.9212 33.672C57.0332 31.872 56.5892 29.688 56.5892 27.12C56.5892 22.536 57.7292 19.272 60.0092 17.328C61.9292 15.696 64.7372 14.868 68.4332 14.844ZM68.4692 18.876C66.1172 18.876 64.4372 19.644 63.4292 21.18C62.6132 22.38 62.2052 24.312 62.2052 26.976C62.2052 29.784 62.7092 31.848 63.7172 33.168C64.7252 34.464 66.3212 35.112 68.5052 35.112C70.6172 35.112 72.1652 34.452 73.1492 33.132C74.1572 31.812 74.6612 29.772 74.6612 27.012C74.6612 24.492 74.2532 22.572 73.4372 21.252C72.5012 19.692 70.8452 18.9 68.4692 18.876ZM90.8137 14.988V29.388C90.8137 30.54 90.9097 31.44 91.1017 32.088C91.2937 32.712 91.6177 33.252 92.0737 33.708C93.0817 34.692 94.4857 35.184 96.2857 35.184C97.4377 35.184 98.4337 34.992 99.2737 34.608C100.138 34.2 100.738 33.66 101.074 32.988C101.41 32.316 101.578 31.116 101.578 29.388V14.988H106.69V29.136C106.69 31.008 106.486 32.556 106.078 33.78C105.694 34.98 105.094 35.952 104.278 36.696C102.382 38.352 99.6937 39.18 96.2137 39.18C92.4937 39.18 89.7817 38.364 88.0777 36.732C87.1897 35.892 86.5777 34.956 86.2417 33.924C85.9057 32.868 85.7377 31.392 85.7377 29.496V14.988H90.8137ZM118.826 19.272H111.194V14.988H131.894V19.272H123.938V39H118.826V19.272ZM164.186 14.988L170.162 33.744L176.462 14.988H183.914V39H179.054V21L172.79 39H167.534L161.594 21V39H156.734V14.988H164.186ZM208.994 14.988V19.272H202.334C200.606 19.272 199.346 19.392 198.554 19.632C197.762 19.872 197.102 20.34 196.574 21.036C196.214 21.516 195.962 21.996 195.818 22.476C195.698 22.956 195.59 23.772 195.494 24.924H208.994V29.208H195.494C195.686 31.272 196.298 32.712 197.33 33.528C198.362 34.32 200.114 34.716 202.586 34.716H208.994V39H202.334C200.534 39 198.95 38.892 197.582 38.676C195.422 38.316 193.706 37.368 192.434 35.832C190.61 33.624 189.698 30.636 189.698 26.868C189.698 22.692 190.982 19.44 193.55 17.112C194.438 16.32 195.374 15.768 196.358 15.456C197.366 15.144 198.71 14.988 200.39 14.988H208.994Z" fill="#333333"/>
<path d="M238.5 0L241.068 5.68503C242.12 8.01454 243.985 9.88026 246.315 10.9324L252 13.5L246.315 16.0676C243.985 17.1197 242.12 18.9855 241.068 21.315L238.5 27L235.932 21.315C234.88 18.9855 233.015 17.1197 230.685 16.0676L225 13.5L230.685 10.9324C233.015 9.88026 234.88 8.01454 235.932 5.68503L238.5 0Z" fill="#333333"/>
</svg>
