<svg width="12" height="385" viewBox="0 0 12 385" fill="none" xmlns="http://www.w3.org/2000/svg">
<path d="M5.59961 381.219C5.93094 381.219 6.19915 381.486 6.19922 381.816V384.202C6.19922 384.533 5.93098 384.8 5.59961 384.8C5.26824 384.8 5 384.533 5 384.202V381.816C5.00007 381.486 5.26828 381.219 5.59961 381.219ZM5.59961 371.673C5.93074 371.673 6.19883 371.941 6.19922 372.271V377.044C6.19905 377.374 5.93088 377.642 5.59961 377.642C5.26834 377.642 5.00016 377.374 5 377.044V372.271C5.00039 371.941 5.26848 371.673 5.59961 371.673ZM5.59961 362.128C5.93081 362.128 6.19894 362.396 6.19922 362.726V367.499C6.19902 367.829 5.93086 368.097 5.59961 368.097C5.26836 368.097 5.0002 367.829 5 367.499V362.726C5.00028 362.396 5.26841 362.128 5.59961 362.128ZM5.59961 352.583C5.93098 352.583 6.19922 352.851 6.19922 353.182V357.953C6.19922 358.283 5.93098 358.551 5.59961 358.551C5.26824 358.551 5 358.283 5 357.953V353.182C5 352.851 5.26824 352.583 5.59961 352.583ZM5.59961 343.037C5.93089 343.037 6.19908 343.306 6.19922 343.636V348.408C6.1992 348.739 5.93097 349.007 5.59961 349.007C5.26825 349.007 5.00002 348.739 5 348.408V343.636C5.00014 343.306 5.26832 343.037 5.59961 343.037ZM6 330.4C9.31371 330.4 12 333.087 12 336.4C11.9999 339.714 9.31367 342.4 6 342.4C2.68633 342.4 6.59726e-05 339.714 0 336.4C0 333.087 2.68629 330.4 6 330.4ZM5.59961 323.947C5.93075 323.947 6.19885 324.215 6.19922 324.545V329.318C6.19902 329.649 5.93086 329.916 5.59961 329.916C5.26836 329.916 5.0002 329.649 5 329.318V324.545C5.00036 324.215 5.26846 323.947 5.59961 323.947ZM5.59961 314.402C5.93082 314.402 6.19896 314.67 6.19922 315V319.773C6.199 320.104 5.93084 320.371 5.59961 320.371C5.26837 320.371 5.00022 320.104 5 319.773V315C5.00025 314.67 5.2684 314.402 5.59961 314.402ZM5.59961 304.857C5.93098 304.857 6.19922 305.126 6.19922 305.456V310.228C6.19922 310.558 5.93098 310.825 5.59961 310.825C5.26824 310.825 5 310.558 5 310.228V305.456C5 305.126 5.26824 304.857 5.59961 304.857ZM5.59961 295.312C5.93089 295.312 6.19907 295.58 6.19922 295.91V300.683C6.19921 301.013 5.93097 301.281 5.59961 301.281C5.26824 301.281 5.00001 301.013 5 300.683V295.91C5.00015 295.58 5.26833 295.312 5.59961 295.312ZM5.59961 285.768C5.93098 285.768 6.19922 286.035 6.19922 286.365V291.138C6.199 291.468 5.93084 291.736 5.59961 291.736C5.26837 291.736 5.00022 291.468 5 291.138V286.365C5 286.035 5.26824 285.768 5.59961 285.768ZM5.59961 276.222C5.93077 276.222 6.19888 276.489 6.19922 276.819V281.593C6.19899 281.923 5.93084 282.19 5.59961 282.19C5.26838 282.19 5.00023 281.923 5 281.593V276.819C5.00034 276.489 5.26845 276.222 5.59961 276.222ZM5.59961 266.677C5.93084 266.677 6.19899 266.944 6.19922 267.274V272.048C6.19898 272.378 5.93083 272.646 5.59961 272.646C5.26839 272.646 5.00024 272.378 5 272.048V267.274C5.00023 266.944 5.26838 266.677 5.59961 266.677ZM6 246.601C9.31371 246.601 12 249.287 12 252.601C12 255.848 9.42067 258.49 6.19922 258.595V262.502C6.19919 262.832 5.93096 263.1 5.59961 263.1C5.26826 263.1 5.00003 262.832 5 262.502V258.516C2.16245 258.039 0 255.573 0 252.601C0 249.287 2.68629 246.601 6 246.601ZM5.59961 238.042C5.93098 238.042 6.19922 238.309 6.19922 238.64V243.412C6.19901 243.742 5.93085 244.011 5.59961 244.011C5.26837 244.011 5.00021 243.742 5 243.412V238.64C5 238.309 5.26824 238.042 5.59961 238.042ZM5.59961 228.496C5.93094 228.496 6.19916 228.764 6.19922 229.095V233.867C6.19896 234.197 5.93082 234.465 5.59961 234.465C5.2684 234.465 5.00026 234.197 5 233.867V229.095C5.00006 228.764 5.26827 228.496 5.59961 228.496ZM5.59961 218.951C5.93085 218.951 6.199 219.219 6.19922 219.549V224.322C6.19896 224.652 5.93082 224.92 5.59961 224.92C5.2684 224.92 5.00026 224.652 5 224.322V219.549C5.00021 219.219 5.26837 218.951 5.59961 218.951ZM5.59961 209.406C5.93082 209.406 6.19896 209.674 6.19922 210.004V214.776C6.19917 215.107 5.93095 215.374 5.59961 215.374C5.26827 215.374 5.00005 215.107 5 214.776V210.004C5.00026 209.674 5.2684 209.406 5.59961 209.406ZM5.59961 199.86C5.93088 199.86 6.19905 200.129 6.19922 200.459V205.231C6.19922 205.562 5.93098 205.829 5.59961 205.829C5.26824 205.829 5 205.562 5 205.231V200.459C5.00017 200.129 5.26834 199.86 5.59961 199.86ZM5.59961 190.315C5.93098 190.315 6.19922 190.584 6.19922 190.914V195.687C6.19902 196.017 5.93086 196.285 5.59961 196.285C5.26836 196.285 5.0002 196.017 5 195.687V190.914C5 190.584 5.26824 190.315 5.59961 190.315ZM5.59961 180.771C5.93096 180.771 6.19919 181.039 6.19922 181.369V186.141C6.19922 186.471 5.93098 186.739 5.59961 186.739C5.26824 186.739 5 186.471 5 186.141V181.369C5.00002 181.039 5.26825 180.771 5.59961 180.771ZM5.59961 161.681C5.93084 161.681 6.199 161.948 6.19922 162.278V164.806C9.42068 164.911 12 167.554 12 170.801C11.9997 174.06 9.40068 176.71 6.16211 176.796C6.07949 177.028 5.86038 177.194 5.59961 177.194C5.31006 177.194 5.069 176.99 5.0127 176.718C2.16906 176.247 0.000237084 173.778 0 170.801C0 167.828 2.16237 165.361 5 164.885V162.278C5.00022 161.948 5.26838 161.681 5.59961 161.681ZM5.59961 152.135C5.93087 152.135 6.19904 152.403 6.19922 152.733V157.506C6.19922 157.836 5.93098 158.104 5.59961 158.104C5.26824 158.104 5 157.836 5 157.506V152.733C5.00017 152.403 5.26835 152.135 5.59961 152.135ZM5.59961 142.59C5.93098 142.59 6.19922 142.858 6.19922 143.188V147.961C6.19903 148.291 5.93086 148.56 5.59961 148.56C5.26836 148.56 5.00019 148.291 5 147.961V143.188C5 142.858 5.26824 142.59 5.59961 142.59ZM5.59961 133.045C5.93098 133.045 6.19922 133.313 6.19922 133.644V138.415C6.19922 138.745 5.93098 139.014 5.59961 139.014C5.26824 139.014 5 138.745 5 138.415V133.644C5 133.313 5.26824 133.045 5.59961 133.045ZM5.59961 123.5C5.93087 123.5 6.19904 123.767 6.19922 124.098V128.871C6.19892 129.201 5.93079 129.469 5.59961 129.469C5.26843 129.469 5.0003 129.201 5 128.871V124.098C5.00017 123.767 5.26835 123.5 5.59961 123.5ZM5.59961 113.955C5.93086 113.955 6.19902 114.223 6.19922 114.553V119.325C6.1991 119.655 5.93091 119.924 5.59961 119.924C5.26831 119.924 5.00012 119.655 5 119.325V114.553C5.0002 114.223 5.26836 113.955 5.59961 113.955ZM5.59961 104.409C5.93087 104.409 6.19904 104.678 6.19922 105.008V109.78C6.19921 110.111 5.93097 110.378 5.59961 110.378C5.26824 110.378 5.00001 110.111 5 109.78V105.008C5.00018 104.678 5.26835 104.409 5.59961 104.409ZM6 83C9.31371 83 12 85.6863 12 89C12 92.3137 9.31371 95 6 95C5.99121 95 5.98242 94.9991 5.97363 94.999C6.11003 95.1088 6.19922 95.2745 6.19922 95.4629V100.235C6.19903 100.566 5.93087 100.834 5.59961 100.834C5.26835 100.834 5.00018 100.566 5 100.235V95.4629C5 95.2482 5.1139 95.0607 5.28418 94.9551C2.30807 94.6011 0 92.0714 0 89C0 85.6863 2.68629 83 6 83ZM5.59961 75.7744C5.93086 75.7744 6.19903 76.0419 6.19922 76.3721V81.1455C6.19893 81.4756 5.9308 81.7432 5.59961 81.7432C5.26842 81.7432 5.00029 81.4756 5 81.1455V76.3721C5.00019 76.0419 5.26836 75.7744 5.59961 75.7744ZM5.59961 66.2295C5.93085 66.2295 6.19901 66.497 6.19922 66.8271V71.5996C6.19911 71.9299 5.93091 72.1982 5.59961 72.1982C5.2683 72.1982 5.00011 71.9299 5 71.5996V66.8271C5.00021 66.497 5.26837 66.2295 5.59961 66.2295ZM5.59961 56.6836C5.93086 56.6836 6.19903 56.9521 6.19922 57.2822V62.0547C6.19922 62.385 5.93098 62.6523 5.59961 62.6523C5.26824 62.6523 5 62.385 5 62.0547V57.2822C5.00019 56.9521 5.26836 56.6836 5.59961 56.6836ZM5.59961 47.1387C5.93098 47.1387 6.19922 47.407 6.19922 47.7373V52.5098C6.19904 52.84 5.93087 53.1084 5.59961 53.1084C5.26835 53.1084 5.00018 52.84 5 52.5098V47.7373C5 47.407 5.26824 47.1387 5.59961 47.1387ZM5.59961 37.5938C5.93098 37.5938 6.19922 37.862 6.19922 38.1924V42.9639C6.19922 43.2942 5.93098 43.5625 5.59961 43.5625C5.26824 43.5625 5 43.2942 5 42.9639V38.1924C5 37.862 5.26824 37.5938 5.59961 37.5938ZM5.59961 28.0488C5.93086 28.0488 6.19902 28.3163 6.19922 28.6465V33.4199C6.19894 33.75 5.93081 34.0176 5.59961 34.0176C5.26841 34.0176 5.00028 33.75 5 33.4199V28.6465C5.0002 28.3163 5.26836 28.0488 5.59961 28.0488ZM5.59961 18.5039C5.93085 18.5039 6.19901 18.7714 6.19922 19.1016V23.874C6.19911 24.2043 5.93092 24.4727 5.59961 24.4727C5.2683 24.4727 5.0001 24.2043 5 23.874V19.1016C5.00021 18.7714 5.26837 18.5039 5.59961 18.5039ZM6 0C9.31371 0 12 2.68629 12 6C12 9.24701 9.42067 11.889 6.19922 11.9941V14.3291C6.19922 14.6594 5.93098 14.9268 5.59961 14.9268C5.26824 14.9268 5 14.6594 5 14.3291V11.915C2.16245 11.4388 0 8.97288 0 6C0 2.68629 2.68629 0 6 0Z" fill="#D9D9D9"/>
</svg>
