<svg width="12" height="272" viewBox="0 0 12 272" fill="none" xmlns="http://www.w3.org/2000/svg">
<path d="M6 267.998C6.33137 267.998 6.59961 268.267 6.59961 268.599V271C6.59961 271.331 6.33137 271.6 6 271.6C5.66863 271.6 5.40039 271.331 5.40039 271V268.599C5.40039 268.267 5.66863 267.998 6 267.998ZM6 258.392C6.33137 258.392 6.59961 258.66 6.59961 258.991V263.795C6.59949 264.126 6.3313 264.395 6 264.395C5.6687 264.395 5.40051 264.126 5.40039 263.795V258.991C5.40039 258.66 5.66863 258.392 6 258.392ZM6 248.784C6.3313 248.784 6.5995 249.053 6.59961 249.384V254.188C6.59961 254.519 6.33137 254.787 6 254.787C5.66863 254.787 5.40039 254.519 5.40039 254.188V249.384C5.4005 249.053 5.6687 248.784 6 248.784ZM6 229.569C6.33137 229.569 6.59961 229.839 6.59961 230.17V234.974C6.5996 234.993 6.59449 235.011 6.59277 235.029C9.62821 235.327 12 237.886 12 241C12 244.314 9.31371 247 6 247C2.68629 247 0 244.314 0 241C0 237.887 2.37127 235.327 5.40625 235.029C5.40454 235.011 5.4004 234.993 5.40039 234.974V230.17C5.40039 229.839 5.66863 229.569 6 229.569ZM6 219.963C6.33135 219.963 6.59958 220.231 6.59961 220.562V225.366C6.59957 225.698 6.33135 225.966 6 225.966C5.66865 225.966 5.40043 225.698 5.40039 225.366V220.562C5.40042 220.231 5.66865 219.963 6 219.963ZM6 210.355C6.33126 210.355 6.59943 210.624 6.59961 210.955V215.759C6.59961 216.09 6.33137 216.359 6 216.359C5.66863 216.359 5.40039 216.09 5.40039 215.759V210.955C5.40057 210.624 5.66874 210.355 6 210.355ZM6 200.748C6.33137 200.748 6.59961 201.017 6.59961 201.349V206.151C6.59961 206.483 6.33137 206.752 6 206.752C5.66863 206.752 5.40039 206.483 5.40039 206.151V201.349C5.40039 201.017 5.66863 200.748 6 200.748ZM6 191.142C6.33137 191.142 6.59961 191.41 6.59961 191.741V196.545C6.59949 196.876 6.33129 197.145 6 197.145C5.66871 197.145 5.40051 196.876 5.40039 196.545V191.741C5.40039 191.41 5.66863 191.142 6 191.142ZM6 171.927C6.33122 171.927 6.59936 172.195 6.59961 172.526V176.029C9.6318 176.33 12 178.889 12 182C12 185.314 9.31371 188 6 188C2.68629 188 0 185.314 0 182C0 178.889 2.3682 176.33 5.40039 176.029V172.526C5.40064 172.195 5.66878 171.927 6 171.927ZM6 162.319C6.33137 162.319 6.59961 162.589 6.59961 162.92V167.724C6.5994 168.055 6.33124 168.323 6 168.323C5.66876 168.323 5.4006 168.055 5.40039 167.724V162.92C5.40039 162.589 5.66863 162.319 6 162.319ZM6 152.713C6.33136 152.713 6.59959 152.981 6.59961 153.312V158.116C6.59955 158.448 6.33134 158.716 6 158.716C5.66866 158.716 5.40045 158.448 5.40039 158.116V153.312C5.40041 152.981 5.66864 152.713 6 152.713ZM6 143.105C6.33127 143.105 6.59944 143.374 6.59961 143.705V148.509C6.59961 148.84 6.33137 149.109 6 149.109C5.66863 149.109 5.40039 148.84 5.40039 148.509V143.705C5.40056 143.374 5.66873 143.105 6 143.105ZM6 133.498C6.33137 133.498 6.59961 133.767 6.59961 134.099V138.901C6.59961 139.233 6.33137 139.502 6 139.502C5.66863 139.502 5.40039 139.233 5.40039 138.901V134.099C5.40039 133.767 5.66863 133.498 6 133.498ZM6 114.284C6.33132 114.284 6.59953 114.552 6.59961 114.884V117.029C9.6318 117.33 12 119.889 12 123C12 126.111 9.63176 128.669 6.59961 128.97V129.295C6.59947 129.626 6.33128 129.895 6 129.895C5.66872 129.895 5.40053 129.626 5.40039 129.295V128.97C2.36824 128.669 0 126.111 0 123C0 119.889 2.3682 117.33 5.40039 117.029V114.884C5.40047 114.552 5.66868 114.284 6 114.284ZM6 104.677C6.33123 104.677 6.59938 104.945 6.59961 105.276V110.08C6.59961 110.411 6.33137 110.681 6 110.681C5.66863 110.681 5.40039 110.411 5.40039 110.08V105.276C5.40062 104.945 5.66877 104.677 6 104.677ZM6 95.0693C6.33137 95.0693 6.59961 95.3385 6.59961 95.6699V100.474C6.59939 100.805 6.33123 101.073 6 101.073C5.66877 101.073 5.40061 100.805 5.40039 100.474V95.6699C5.40039 95.3385 5.66863 95.0693 6 95.0693ZM6 85.4629C6.33137 85.4629 6.59961 85.7311 6.59961 86.0625V90.8662C6.59953 91.1975 6.33133 91.4658 6 91.4658C5.66867 91.4658 5.40047 91.1975 5.40039 90.8662V86.0625C5.40039 85.7311 5.66863 85.4629 6 85.4629ZM6 75.8555C6.33128 75.8555 6.59946 76.1238 6.59961 76.4551V81.2588C6.59961 81.5902 6.33137 81.8594 6 81.8594C5.66863 81.8594 5.40039 81.5902 5.40039 81.2588V76.4551C5.40054 76.1238 5.66872 75.8555 6 75.8555ZM6 56.6406C6.33137 56.6406 6.59961 56.9098 6.59961 57.2412V58.0293C9.6318 58.3301 12 60.8886 12 64C12 67.1113 9.63176 69.6688 6.59961 69.9697V71.6514C6.59961 71.9827 6.33137 72.252 6 72.252C5.66863 72.252 5.40039 71.9827 5.40039 71.6514V69.9697C2.36824 69.6688 0 67.1113 0 64C0 60.8886 2.3682 58.3301 5.40039 58.0293V57.2412C5.40039 56.9098 5.66863 56.6406 6 56.6406ZM6 47.0342C6.33133 47.0342 6.59953 47.3025 6.59961 47.6338V52.4375C6.59961 52.7689 6.33137 53.0371 6 53.0371C5.66863 53.0371 5.40039 52.7689 5.40039 52.4375V47.6338C5.40047 47.3025 5.66867 47.0342 6 47.0342ZM6 37.4268C6.33123 37.4268 6.59938 37.6952 6.59961 38.0264V42.8301C6.59961 43.1614 6.33137 43.4307 6 43.4307C5.66863 43.4307 5.40039 43.1614 5.40039 42.8301V38.0264C5.40062 37.6952 5.66877 37.4268 6 37.4268ZM6 27.8193C6.33137 27.8193 6.59961 28.0886 6.59961 28.4199V33.2236C6.59938 33.5548 6.33123 33.8232 6 33.8232C5.66877 33.8232 5.40062 33.5548 5.40039 33.2236V28.4199C5.40039 28.0886 5.66863 27.8193 6 27.8193ZM6 18.2129C6.33137 18.2129 6.59961 18.4811 6.59961 18.8125V23.6162C6.59953 23.9475 6.33132 24.2158 6 24.2158C5.66868 24.2158 5.40047 23.9475 5.40039 23.6162V18.8125C5.40039 18.4811 5.66863 18.2129 6 18.2129ZM6 0C9.31371 0 12 2.68629 12 6C12 9.11132 9.63176 11.6688 6.59961 11.9697V14.0088C6.59961 14.3402 6.33137 14.6094 6 14.6094C5.66863 14.6094 5.40039 14.3402 5.40039 14.0088V11.9697C2.36824 11.6688 0 9.11132 0 6C0 2.68629 2.68629 0 6 0Z" fill="#D9D9D9"/>
</svg>
