<svg width="325" height="245" viewBox="0 0 325 245" fill="none" xmlns="http://www.w3.org/2000/svg">
<path d="M124.322 21.7403C196.296 -5.25101 261.806 -7.43106 271.089 17.0031L271.297 17.5833C273.114 22.9625 272.114 29.156 268.694 35.8373C293.192 36.9627 310.115 43.7016 314.868 56.2112L315.118 56.909C315.59 58.3029 315.904 59.742 316.068 61.2222C316.874 61.475 317.713 61.6333 318.568 61.6857L324.794 62.0668L320.392 66.4866C318.588 68.2974 317.506 70.7041 317.35 73.2554L316.969 79.4812L313.409 75.9352C310.215 83.4182 304.358 91.4679 296.24 99.7452C307.546 102.669 315.231 107.848 318.072 115.327L318.295 115.951C327.281 142.518 273.033 187.315 196.35 216.448L194.54 217.132C146.744 235.053 101.595 242.603 71.9792 239.358C71.5063 241.442 70.0332 243.258 67.886 244.074C64.4786 245.368 60.6673 243.655 59.3728 240.248C58.9612 239.165 58.8537 238.041 59.0079 236.97C48.2561 234.002 40.9451 228.912 38.1897 221.659C35.3487 214.181 37.6548 205.205 44.1673 195.512C21.4745 193.945 5.86665 187.262 1.3328 175.329C-3.41973 162.819 4.75878 146.543 22.329 129.435C15.3365 126.71 10.4766 122.743 8.26346 117.515L8.03366 116.943C-1.32244 92.3163 49.98 49.98 122.621 22.3824L124.322 21.7403ZM295.75 100.24C272.095 124.12 229.75 149.845 178.451 169.335L176.423 170.101C125.867 189.058 77.9633 197.679 44.8612 195.557C44.0465 196.756 43.2964 197.942 42.6136 199.116C37.7574 207.466 36.3255 215.064 38.7502 221.446C41.175 227.828 47.2908 232.559 56.4659 235.578C57.3247 235.86 58.2096 236.127 59.1197 236.379C59.6096 234.325 61.075 232.541 63.1979 231.734C66.6054 230.439 70.4179 232.153 71.7124 235.56C72.1147 236.619 72.2247 237.717 72.0855 238.767C78.1154 239.425 84.8031 239.636 92.041 239.397C120.58 238.457 157.538 230.552 196.137 215.888C234.736 201.223 267.619 182.594 289.583 164.347C300.568 155.222 308.794 146.214 313.647 137.87C318.503 129.52 319.935 121.922 317.51 115.54C315.086 109.158 308.97 104.427 299.795 101.408C298.504 100.984 297.155 100.595 295.75 100.24ZM160.125 121.098C121.526 135.762 88.6422 154.392 66.6782 172.639C57.4868 180.275 50.2262 187.829 45.2574 194.98C50.3689 195.295 55.8374 195.356 61.6186 195.161C93.5885 194.079 134.992 185.204 178.238 168.774C221.483 152.344 258.335 131.488 282.958 111.07C287.411 107.377 291.457 103.7 295.07 100.071C286.607 98.0235 276.163 97.1952 264.22 97.5886C235.681 98.5288 198.723 106.434 160.125 121.098ZM268.387 36.4243C255.698 60.3355 212.424 90.3177 156.502 111.564L154.801 112.206C99.5212 132.936 48.0554 139.029 22.9483 129.671C15.6982 136.704 10.0529 143.583 6.24934 150.102C0.796587 159.446 -0.82533 167.96 1.89332 175.116C4.61217 182.272 11.4784 187.562 21.7602 190.928C28.1503 193.02 35.8241 194.355 44.5586 194.936C61.4009 170.421 104.878 141.445 159.912 120.537L161.721 119.854C216.077 99.4728 267.01 92.5055 295.565 99.5744C301.71 93.3399 306.562 87.2465 309.951 81.4389C311.134 79.4121 312.135 77.4233 312.952 75.48L312.55 75.0791C310.739 73.2752 308.332 72.1939 305.781 72.0376L299.554 71.6559L303.957 67.2366C305.761 65.4258 306.843 63.0192 306.999 60.4681L307.379 54.2414L311.799 58.6445C312.841 59.683 314.082 60.4805 315.433 61.0015C315.237 59.4217 314.865 57.8943 314.307 56.4245C311.588 49.2686 304.722 43.9787 294.441 40.6122C287.268 38.2638 278.478 36.8692 268.387 36.4243ZM137.963 62.7664C94.7179 79.1961 57.8661 100.052 33.2425 120.471C29.7117 123.399 26.4346 126.316 23.4273 129.208C23.9877 129.413 24.5613 129.611 25.1487 129.801C33.7394 132.578 45.118 133.723 58.5138 133.237C85.2999 132.267 120.013 124.784 156.289 111.002C192.565 97.2202 223.489 79.7661 244.162 62.706C254.501 54.1739 262.25 45.7625 266.83 37.9822C267.143 37.4503 267.439 36.9209 267.722 36.3959C263.553 36.2303 259.166 36.2246 254.582 36.3798C222.612 37.4617 181.209 46.3367 137.963 62.7664ZM122.834 22.943C86.5576 36.7249 55.633 54.1793 34.9597 71.2395C24.6208 79.7715 16.8732 88.1836 12.2932 95.9638C7.70948 103.75 6.34688 110.815 8.59418 116.73C10.6305 122.09 15.5092 126.187 22.8033 128.976C46.8534 105.761 88.1099 81.0652 137.75 62.2058L139.778 61.4408C188.675 43.1054 235.092 34.4361 268.035 35.8068C271.637 28.8782 272.564 22.5759 270.528 17.2164C268.281 11.3013 262.572 6.9234 253.974 4.14466C245.383 1.36818 234.004 0.222872 220.608 0.708246C193.822 1.67882 159.109 9.16111 122.834 22.943Z" fill="black"/>
</svg>
