<svg width="14" height="14" viewBox="0 0 14 14" fill="none" xmlns="http://www.w3.org/2000/svg">
<path d="M11.0372 8.94238C11.0371 8.91233 11.0207 8.88481 10.9942 8.87012L9.70518 8.15332C9.68127 8.14012 9.65248 8.13928 9.62803 8.15137L8.25303 8.83887C8.1549 8.88792 8.0434 8.9034 7.93565 8.88281L7.93174 8.88184C7.9306 8.88161 7.92932 8.88116 7.92783 8.88086C7.9242 8.88012 7.91876 8.87912 7.91319 8.87793C7.90213 8.87557 7.88737 8.87245 7.86924 8.86816C7.83234 8.85944 7.78061 8.84623 7.71787 8.82812C7.59266 8.79196 7.41962 8.73497 7.21885 8.64941C6.81873 8.4789 6.29552 8.18995 5.82139 7.71582C5.34731 7.24173 5.05712 6.71802 4.88584 6.31738C4.79985 6.11624 4.74263 5.9428 4.70616 5.81738C4.68789 5.75455 4.67494 5.70295 4.66612 5.66602C4.66171 5.64757 4.65777 5.63222 4.65537 5.62109C4.65422 5.61575 4.65316 5.61094 4.65244 5.60742C4.65211 5.60577 4.65269 5.60376 4.65244 5.60254L4.65147 5.60156V5.59961C4.63048 5.49149 4.6462 5.37978 4.69541 5.28125L5.38194 3.90625C5.39421 3.88171 5.39428 3.85217 5.38096 3.82812L4.66709 2.54297C4.65238 2.51648 4.62414 2.5 4.59385 2.5H3.11436C2.6737 2.50023 2.4093 2.89158 2.53135 3.25391C3.02264 4.70991 3.93547 6.89045 5.29112 8.24609L5.55479 8.49512C6.91667 9.71418 8.91832 10.5453 10.2833 11.0059C10.6457 11.128 11.037 10.8636 11.0372 10.4229V8.94238ZM12.0372 10.4229C12.037 11.4888 11.0285 12.3127 9.96299 11.9531C8.48603 11.4547 6.11393 10.483 4.58408 8.95312C3.0542 7.42325 2.08247 5.05115 1.58408 3.57422C1.2246 2.50879 2.0484 1.50024 3.11436 1.5H4.59385C4.9874 1.5 5.35008 1.71357 5.54112 2.05762L6.25498 3.34277C6.42847 3.65529 6.43638 4.03374 6.27647 4.35352L5.67295 5.55859C5.7003 5.65003 5.74282 5.77656 5.80576 5.92383C5.94251 6.24367 6.16884 6.6492 6.52842 7.00879C6.88778 7.36815 7.29185 7.59367 7.61045 7.72949C7.7556 7.79134 7.88098 7.83327 7.97178 7.86035L9.18076 7.25684C9.50066 7.09702 9.87899 7.10555 10.1915 7.2793L11.4806 7.99609C11.824 8.18717 12.0371 8.54924 12.0372 8.94238V10.4229Z" fill="#999999"/>
</svg>
