<svg width="14" height="14" viewBox="0 0 14 14" fill="none" xmlns="http://www.w3.org/2000/svg">
<path d="M12.834 2.125C12.9029 2.12509 12.9686 2.13879 13.0283 2.16406C13.0583 2.17679 13.0866 2.19285 13.1133 2.21094L13.1875 2.27148C13.2779 2.36195 13.334 2.48706 13.334 2.625V11.375C13.334 11.6509 13.1098 11.8746 12.834 11.875H1.16699C0.89085 11.875 0.666992 11.6511 0.666992 11.375V2.625C0.666992 2.34886 0.89085 2.125 1.16699 2.125H12.834ZM1.66699 10.875H12.334V7H12.333V3.625L7.30078 7.40039C7.12312 7.53364 6.87795 7.53347 6.7002 7.40039L1.66699 3.625V10.875ZM7 6.37402L11.333 3.125H2.66699L7 6.37402Z" fill="#999999"/>
</svg>
