<svg width="439" height="52" viewBox="0 0 439 52" fill="none" xmlns="http://www.w3.org/2000/svg">
<path d="M276.728 39.7354C276.728 41.1752 276.847 42.3004 277.087 43.1104C277.327 43.8901 277.732 44.5649 278.302 45.1348C279.562 46.3648 281.317 46.9805 283.567 46.9805C285.007 46.9804 286.252 46.7397 287.302 46.2598C288.382 45.7499 289.132 45.0751 289.552 44.2354C289.972 43.3954 290.183 41.8952 290.183 39.7354V21.7354H296.572V39.4199C296.572 41.7597 296.318 43.6947 295.808 45.2246C295.328 46.7245 294.578 47.9401 293.558 48.8701C291.188 50.9401 287.827 51.9746 283.478 51.9746C278.828 51.9746 275.438 50.9549 273.308 48.915C272.198 47.8651 271.433 46.6951 271.013 45.4053C270.593 44.0853 270.382 42.2401 270.382 39.8701V21.7354H276.728V39.7354ZM81.5146 21.5547C84.5146 21.5547 87.1555 22.065 89.4355 23.085C92.1054 24.315 93.9806 26.3701 95.0605 29.25C95.9005 31.5 96.3203 34.14 96.3203 37.1699C96.3203 40.2298 95.81 42.8848 94.79 45.1348C93.5001 47.8046 91.5203 49.6797 88.8506 50.7598C86.8706 51.5398 84.5898 51.9297 82.0098 51.9297C78.62 51.9296 75.6803 51.2999 73.1904 50.04C71.0904 48.99 69.485 47.3398 68.375 45.0898C67.2651 42.84 66.71 40.1101 66.71 36.9004C66.71 31.1704 68.1354 27.0902 70.9854 24.6602C73.3853 22.6203 76.8949 21.5848 81.5146 21.5547ZM14.9854 21.7354C17.7151 21.7354 19.6649 21.9304 20.835 22.3203C22.815 22.9803 24.3756 24.345 25.5156 26.415C26.3556 27.975 26.7754 29.67 26.7754 31.5C26.7754 33.03 26.4909 34.4852 25.9209 35.8652C25.3809 37.2152 24.615 38.3253 23.625 39.1953C22.7251 39.9751 21.765 40.5155 20.7451 40.8154C19.7551 41.1153 18.3902 41.2646 16.6504 41.2646H6.39062V51.75H0V21.7354H14.9854ZM48.1758 21.7354C52.3758 21.7354 55.3012 22.2755 56.9512 23.3555C58.091 24.0754 58.9616 25.0354 59.5615 26.2354C60.1914 27.4052 60.5059 28.6957 60.5059 30.1055C60.5058 32.9552 59.7856 35.1598 58.3457 36.7197C57.4457 37.6497 56.261 38.355 54.791 38.835C55.961 39.2549 56.8463 39.7046 57.4463 40.1846C58.0463 40.6346 58.5864 41.31 59.0664 42.21C59.4264 42.9299 59.6811 43.6203 59.8311 44.2803C60.011 44.9403 60.1463 45.9152 60.2363 47.2051C60.4163 49.365 60.6561 50.88 60.9561 51.75H53.8008C53.5908 51.06 53.366 49.6345 53.126 47.4746C52.976 45.7348 52.6606 44.3997 52.1807 43.4697C51.7307 42.5399 51.0412 41.8046 50.1113 41.2646C48.9414 40.6347 47.2462 40.3353 45.0264 40.3652H39.8965V51.75H33.5059V21.7354H48.1758ZM121.641 38.6104C121.641 40.7101 121.566 42.2999 121.416 43.3799C121.266 44.4599 120.966 45.4804 120.516 46.4404C119.376 48.9902 117.305 50.6248 114.306 51.3447C112.866 51.6147 110.721 51.75 107.871 51.75H101.076V46.3945H107.195C109.115 46.3945 110.526 46.3348 111.426 46.2148C112.356 46.0648 113.061 45.7803 113.541 45.3604C114.201 44.8504 114.651 44.1151 114.891 43.1553C115.161 42.1953 115.296 40.6802 115.296 38.6104V21.7354H121.641V38.6104ZM152.656 27.0898H144.331C142.171 27.0898 140.595 27.24 139.605 27.54C138.616 27.8401 137.791 28.4251 137.131 29.2949C136.681 29.8949 136.366 30.4948 136.186 31.0947C136.036 31.6947 135.901 32.7153 135.781 34.1553H152.656V39.5098H135.781C136.021 42.0898 136.786 43.8902 138.076 44.9102C139.366 45.9 141.556 46.3945 144.646 46.3945H152.656V51.75H144.331C142.081 51.75 140.101 51.6147 138.391 51.3447C135.691 50.8947 133.546 49.7099 131.956 47.79C129.676 45.03 128.536 41.295 128.536 36.585C128.536 31.365 130.141 27.2996 133.351 24.3896C134.461 23.3996 135.631 22.7103 136.861 22.3203C138.121 21.9304 139.802 21.7354 141.901 21.7354H152.656V27.0898ZM183.225 27.0898H173.774C170.925 27.0899 168.84 27.8549 167.52 29.3848C166.41 30.6447 165.855 32.9248 165.854 36.2246C165.854 40.6646 166.71 43.5751 168.42 44.9551C169.62 45.915 171.495 46.3945 174.045 46.3945H183.225V51.75H172.739C170.759 51.75 169.244 51.6446 168.194 51.4346C164.505 50.7145 161.879 48.6594 160.319 45.2695C159.299 42.9896 158.79 40.1693 158.79 36.8096C158.79 32.7898 159.57 29.5199 161.13 27C162.27 25.1701 163.785 23.8351 165.675 22.9951C167.595 22.1552 170.055 21.7354 173.055 21.7354H183.225V27.0898ZM213.395 27.0898H203.449V51.75H197.06V27.0898H187.52V21.7354H213.395V27.0898ZM262.669 27.0898H250.294C247.624 27.0898 245.689 27.6749 244.489 28.8447C243.049 30.2247 242.329 32.6998 242.329 36.2695C242.329 38.0994 242.509 39.7498 242.869 41.2197C243.259 42.6897 243.784 43.7849 244.444 44.5049C245.014 45.1648 245.794 45.6453 246.784 45.9453C247.804 46.2452 249.049 46.3945 250.519 46.3945H256.324V39.2852H247.954V33.9297H262.669V51.75H249.259C246.949 51.75 245.104 51.5849 243.724 51.2549C242.374 50.8949 241.144 50.28 240.034 49.4102C236.884 46.9802 235.309 42.7952 235.309 36.8555C235.309 32.9855 236.059 29.7597 237.559 27.1797C238.669 25.2898 240.184 23.91 242.104 23.04C244.024 22.17 246.514 21.7354 249.574 21.7354H262.669V27.0898ZM311.473 51.75H305.083V21.7354H311.473V51.75ZM332.998 21.7354C336.178 21.7354 338.638 22.0498 340.378 22.6797C343.588 23.8497 345.733 25.9952 346.813 29.1152C347.623 31.515 348.028 34.0798 348.028 36.8096C348.028 39.5095 347.638 42.06 346.858 44.46C346.078 46.92 344.788 48.7353 342.988 49.9053C341.848 50.6252 340.588 51.1197 339.208 51.3896C337.858 51.6296 335.788 51.75 332.998 51.75H320.264V21.7354H332.998ZM377.675 27.0898H369.351C367.191 27.0898 365.615 27.24 364.625 27.54C363.635 27.84 362.81 28.4251 362.15 29.2949C361.7 29.8949 361.385 30.4948 361.205 31.0947C361.055 31.6947 360.92 32.7153 360.8 34.1553H377.675V39.5098H360.8C361.04 42.0898 361.806 43.8902 363.096 44.9102C364.386 45.8999 366.575 46.3945 369.665 46.3945H377.675V51.75H369.351C367.101 51.75 365.12 51.6147 363.41 51.3447C360.71 50.8947 358.566 49.7099 356.976 47.79C354.696 45.03 353.556 41.295 353.556 36.585C353.556 31.365 355.16 27.2996 358.37 24.3896C359.48 23.3998 360.65 22.7103 361.88 22.3203C363.14 21.9303 364.82 21.7354 366.92 21.7354H377.675V27.0898ZM81.5605 26.5947C78.6206 26.5947 76.5198 27.5547 75.2598 29.4746C74.2398 30.9746 73.7305 33.3899 73.7305 36.7197C73.7305 40.2297 74.3601 42.81 75.6201 44.46C76.8801 46.08 78.8755 46.8896 81.6055 46.8896C84.2453 46.8896 86.1802 46.065 87.4102 44.415C88.6702 42.765 89.2998 40.2146 89.2998 36.7646C89.2998 33.6151 88.7903 31.2154 87.7705 29.5654C86.6006 27.6155 84.5303 26.6248 81.5605 26.5947ZM326.653 46.3945H332.998C335.788 46.3945 337.724 45.7798 338.804 44.5498C339.464 43.7698 339.988 42.6745 340.378 41.2646C340.798 39.8547 341.009 38.3546 341.009 36.7646C341.009 34.9949 340.768 33.3751 340.288 31.9053C339.808 30.4354 339.178 29.3401 338.398 28.6201C337.258 27.6001 335.458 27.0898 332.998 27.0898H326.653V46.3945ZM423.475 8.65625C424.79 11.5681 427.122 13.9007 430.034 15.2158L438.69 19.125L430.034 23.0342C427.122 24.3493 424.79 26.6819 423.475 29.5938L419.565 38.25L415.656 29.5938C414.341 26.6819 412.009 24.3493 409.097 23.0342L400.44 19.125L409.097 15.2158C412.009 13.9007 414.341 11.5681 415.656 8.65625L419.565 0L423.475 8.65625ZM6.39062 35.9102H15.0752C16.635 35.9102 17.7303 35.6703 18.3604 35.1904C19.2903 34.4405 19.7558 33.1352 19.7559 31.2754C19.7559 29.2655 19.0505 27.9753 17.6406 27.4053C17.1306 27.1953 16.32 27.0898 15.21 27.0898H6.39062V35.9102ZM39.8965 35.0098H48.8516C50.3512 35.0097 51.416 34.7849 52.0459 34.335C53.0059 33.675 53.4863 32.5201 53.4863 30.8701C53.4863 29.0402 52.7661 27.8704 51.3262 27.3604C50.8162 27.1804 49.9913 27.0899 48.8516 27.0898H39.8965V35.0098Z" fill="#333333"/>
</svg>
