<svg width="100" height="51" viewBox="0 0 100 51" fill="none" xmlns="http://www.w3.org/2000/svg">
<g opacity="0.2">
<path d="M70.9893 22.3048C71.332 22.3048 71.6621 22.4826 71.9795 22.838C72.3095 23.1934 72.4745 23.5617 72.4746 23.9425C72.4746 24.1837 72.2969 24.5714 71.9414 25.1046C71.5986 25.6378 71.0458 26.3166 70.2842 27.1417C69.5352 27.9541 68.4882 28.9318 67.1426 30.0743L66.7803 31.1222C66.6788 31.3251 66.6279 31.5031 66.6279 31.6554C66.628 31.9979 66.7999 32.169 67.1426 32.169C67.498 32.169 68.3294 31.7186 69.6367 30.8175C70.957 29.9161 72.3857 28.7032 73.9219 27.1798C74.5184 26.5832 75.0137 26.0567 75.4072 25.5997C75.8008 25.1427 76.1562 24.7169 76.4736 24.3233C76.7909 23.9172 77.0508 23.6124 77.2539 23.4093C77.4695 23.2063 77.6603 23.0989 77.8252 23.086C78.1425 23.0479 78.3906 23.1809 78.5684 23.4854C78.7461 23.7901 78.835 24.2413 78.835 24.838C78.8349 25.1807 78.6825 25.6125 78.3779 26.1329C78.0732 26.6407 77.5018 27.5168 76.6641 28.7608C75.8262 29.9922 74.9882 31.2746 74.1504 32.6075C73.3252 33.9278 72.4804 35.4191 71.6172 37.0821C71.6553 37.044 72.043 36.6632 72.7793 35.9395C73.5282 35.216 74.3155 34.4609 75.1406 33.6739C75.9657 32.8869 76.6446 32.2579 77.1777 31.7882C77.7109 31.3057 78.3779 30.7472 79.1777 30.1124V31.3888C77.4639 33.2295 75.9082 34.9747 74.5117 36.6251C73.128 38.2753 72.0556 39.5958 71.2939 40.586C70.5449 41.5763 70.1064 42.1544 69.9795 42.3194C69.6369 42.7635 69.3261 43.176 69.0469 43.5567C68.7803 43.9503 68.5518 44.2491 68.3613 44.4522C68.1836 44.668 68.0371 44.7755 67.9229 44.7755C67.6564 44.7752 67.4149 44.5086 67.1992 43.9757C66.9962 43.4554 66.8946 42.9921 66.8945 42.586C66.8945 42.2179 66.9648 41.8936 67.1045 41.6143C68.0186 39.5577 70.0686 35.9841 73.2549 30.8936L69.8652 33.7686C68.253 35.1777 67.1738 35.8829 66.6279 35.8829C66.1329 35.8825 65.6121 35.3171 65.0664 34.1876C64.5207 33.0453 64.2481 32.0488 64.248 31.1983C64.248 30.4749 64.3556 29.8652 64.5713 29.3702C64.7998 28.8624 65.1875 28.2081 65.7334 27.4083C66.5077 26.3293 67.2501 25.4151 67.9609 24.6661C68.6718 23.9171 69.3008 23.3399 69.8467 22.9337C70.3926 22.5147 70.7734 22.3048 70.9893 22.3048ZM20.7949 13.2598C22.623 13.2598 24.0322 13.3995 25.0225 13.6788C26.0254 13.9581 26.5273 14.3897 26.5273 14.9737C26.5273 15.9259 26.3936 16.6622 26.127 17.1827C25.873 17.7032 25.5938 18.0528 25.2891 18.2306C24.997 18.3956 24.4764 18.6242 23.7275 18.9161C22.9278 19.1954 22.2295 19.4874 21.6328 19.7921C21.049 20.0967 20.5478 20.3888 20.1289 20.6681C19.71 20.9473 19.4492 21.087 19.3477 21.087C19.2209 21.087 19.1574 21.0359 19.1572 20.9347C19.1572 20.7188 19.3799 20.3946 19.8242 19.963C20.2812 19.5187 20.84 19.1319 21.5 18.8018C22.1981 18.4337 22.5469 18.1983 22.5469 18.0968C22.5469 17.9318 22.1598 17.8497 21.3857 17.8497C19.0373 17.8497 16.8661 18.0587 14.873 18.4776C12.88 18.8965 11.3057 19.4493 10.1504 20.1348C9.00781 20.8204 8.43652 21.5186 8.43652 22.2296C8.4367 22.6737 8.67107 22.9914 9.14062 23.1817C9.62312 23.3595 10.6769 23.6642 12.3018 24.0958C13.9267 24.5274 15.3809 25.0226 16.6631 25.5811C18.5036 26.3682 19.8683 27.1867 20.7568 28.0372C21.6455 28.8878 22.0898 29.8399 22.0898 30.8936C22.0898 31.6173 21.9121 32.3477 21.5566 33.0841C21.2139 33.8075 20.7059 34.4738 20.0332 35.0831C19.3604 35.6925 18.5859 36.1944 17.71 36.588C16.9611 36.9053 16.0153 37.2033 14.873 37.4825C13.7433 37.7618 12.5115 37.9776 11.1787 38.13C9.8584 38.295 8.59473 38.378 7.38867 38.378C5.16699 38.378 3.37695 38.1681 2.01855 37.7491C0.672852 37.3302 0 36.6954 0 35.8448C3.58923e-07 35.464 0.228656 34.8739 0.685547 34.0743C1.14258 33.2618 1.68262 32.7159 2.30469 32.4366C2.85049 32.2208 3.37703 32.0997 3.88477 32.0743C4.39258 32.0362 4.64648 32.0938 4.64648 32.2462C4.64632 32.2841 4.62777 32.3225 4.58984 32.3604C4.55176 32.3985 4.50684 32.4298 4.45605 32.4552L4.30371 32.5313C4.04994 32.6328 3.84078 32.7159 3.67578 32.7794C3.52361 32.8301 3.39643 32.8869 3.29492 32.9503C3.20605 33.0011 3.16113 33.0772 3.16113 33.1788C3.16113 33.4454 4.47559 33.5792 7.10352 33.5792C9.38845 33.5792 11.2608 33.4962 12.7207 33.3311C14.1807 33.1661 15.4697 32.8682 16.5869 32.4366C17.704 32.005 18.7198 31.4082 19.6338 30.6466C19.3164 30.0626 18.8398 29.5352 18.2051 29.0655C17.5705 28.5959 16.8533 28.2217 16.0537 27.9425C15.2668 27.6505 14.4412 27.4347 13.5781 27.295C11.0137 26.9141 8.62012 26.0821 6.39844 24.7999C6.20801 24.6983 6.00488 24.4825 5.78906 24.1524C5.57324 23.8223 5.46582 23.505 5.46582 23.2003C5.46582 22.0831 5.64941 20.9659 6.01758 19.8487C6.39838 18.719 6.88097 17.837 7.46484 17.2022C8.4043 16.1485 10.0928 15.2276 12.5303 14.4405C14.9805 13.6534 17.7354 13.2598 20.7949 13.2598ZM95.4463 21.5626C95.7127 21.5627 95.9601 21.677 96.1885 21.9054C96.417 22.1212 96.5947 22.3751 96.7217 22.6671C96.8613 22.9591 96.9316 23.1749 96.9316 23.3145C96.9316 23.543 96.8427 23.7149 96.665 23.8292C96.4873 23.9307 96.1758 24.0577 95.7314 24.21C95.8203 24.4131 95.9347 24.6731 96.0742 24.9903C96.2139 25.3077 96.3223 25.5684 96.3984 25.7716C96.4744 25.9618 96.5127 26.1331 96.5127 26.2852C96.5127 26.5899 96.2012 27.1612 95.5791 27.9991C94.9697 28.8243 94.5381 29.4337 94.2842 29.8272C94.043 30.2208 93.9229 30.7032 93.9229 31.2745C93.9229 32.214 94.3545 32.6837 95.2178 32.6837C96.1064 32.6834 97.4966 31.8522 99.3877 30.1895V31.3507C96.1758 34.9181 93.8779 36.7022 92.4941 36.7022C91.9992 36.7022 91.6436 36.537 91.4277 36.2071C91.2246 35.8897 91.123 35.4132 91.123 34.7784C91.123 33.7755 91.4854 32.3222 92.209 30.4181C90.3555 32.4747 88.9775 33.9405 88.0762 34.8165C87.1751 35.6795 86.4325 36.1112 85.8486 36.1114C85.5693 36.1114 85.2197 35.8702 84.8008 35.3878C84.3819 34.9054 84.0078 34.2832 83.6777 33.5216C83.3604 32.7472 83.2012 31.9473 83.2012 31.1222C83.2012 30.5255 83.2588 30.0304 83.373 29.6368C83.4873 29.2307 83.7092 28.8183 84.0391 28.3995C84.3691 27.9806 84.8965 27.4278 85.6201 26.7423C87.5496 24.9905 89.422 23.6895 91.2373 22.839C93.0527 21.9884 94.4561 21.5626 95.4463 21.5626ZM58.7012 22.8956C58.9043 22.8956 59.1016 23.1749 59.292 23.7335C59.4951 24.292 59.5967 24.8576 59.5967 25.4288C59.5964 25.7081 59.3229 26.1332 58.7773 26.7042C56.543 29.1925 55.4258 30.9259 55.4258 31.9034C55.4259 32.449 55.6486 32.7218 56.0928 32.7218C56.4609 32.7216 56.9368 32.5312 57.5205 32.1505C58.1171 31.7569 59.0441 31.0654 60.3008 30.0753V31.3888C58.4981 33.1661 57.1143 34.4483 56.1494 35.2354C55.1846 36.0225 54.3975 36.4161 53.7881 36.4161C52.7471 36.4161 52.2266 35.7305 52.2266 34.3595C52.2266 33.9534 52.2901 33.5536 52.417 33.1602C52.5439 32.7667 52.7159 32.3604 52.9316 31.9415C53.1601 31.5099 53.503 30.9004 53.96 30.1134C54.4169 29.3137 54.9435 28.412 55.54 27.4093C54.8165 27.7774 53.909 28.5072 52.8174 29.5987C52.1064 30.2843 51.5029 30.9386 51.0078 31.5606C50.5128 32.1699 49.9794 32.8557 49.4082 33.6173C48.8497 34.3661 48.4375 34.8741 48.1709 35.1407C47.917 35.3946 47.6562 35.5216 47.3896 35.5216C46.9834 35.5215 46.6093 35.0957 46.2666 34.2452C45.9238 33.3946 45.752 32.4044 45.752 31.2745C45.752 30.5763 45.8281 30.0304 45.9805 29.6368C46.1455 29.2433 46.4629 28.6846 46.9326 27.961C47.8086 26.6153 48.5645 25.6319 49.1992 25.0098C49.834 24.3751 50.4434 24.0577 51.0273 24.0577C51.4334 24.0578 51.7569 24.1271 51.998 24.2667C52.252 24.4063 52.3789 24.6222 52.3789 24.9141C52.3789 25.0411 52.3408 25.1749 52.2646 25.3145C52.1885 25.454 52.0995 25.5812 51.998 25.6954C51.9091 25.8097 51.7125 26.0318 51.4082 26.3614C49.4023 28.5831 48.3994 30.0245 48.3994 30.6847C48.3995 31.0525 48.5197 31.2364 48.7607 31.2364C48.9131 31.2364 49.2051 30.9952 49.6367 30.5128C50.081 30.0177 50.6465 29.377 51.332 28.5899C52.0303 27.7901 52.8486 26.9581 53.7881 26.0948C54.7402 25.2316 55.8194 24.4004 57.0254 23.6007C57.6982 23.131 58.2568 22.8956 58.7012 22.8956ZM37.6152 22.4571C38.2119 22.4571 38.6816 22.5528 39.0244 22.7432C39.3672 22.921 39.5391 23.1749 39.5391 23.505C39.539 23.7588 39.3925 24.051 39.1006 24.3809C39.5829 24.4825 39.9131 24.6535 40.0908 24.8946C40.2686 25.1231 40.3574 25.5489 40.3574 26.171C40.3574 26.7802 40.2118 27.5482 39.9199 28.4747C39.6406 29.4015 39.2529 30.2716 38.7578 31.0841L39.1006 31.4268H39.3867C39.6023 31.4268 39.8117 31.3759 40.0146 31.2745C40.2304 31.1603 40.4209 31.0459 40.5859 30.9317C40.751 30.8048 41.1133 30.5313 41.6719 30.1124V31.3888C40.8341 32.1504 40.1611 32.6583 39.6533 32.9122C39.1455 33.1661 38.415 33.2677 37.4629 33.2169C35.8127 35.1716 34.3592 36.1493 33.1025 36.1495C32.3917 36.1495 31.7441 35.9141 31.1602 35.4444C30.5763 34.9748 30.1064 34.3339 29.751 33.5216C29.4082 32.7091 29.2363 31.8009 29.2363 30.7979C29.2364 29.9855 29.503 29.084 30.0361 28.0938C30.582 27.1037 31.2804 26.1836 32.1309 25.3331C32.9941 24.4698 33.915 23.7774 34.8926 23.2569C35.8699 22.7239 36.7775 22.4571 37.6152 22.4571ZM37.749 25.1046C36.6955 25.7392 35.7939 26.3166 35.0449 26.837C34.296 27.3447 33.6611 27.8654 33.1406 28.3985C32.6201 28.919 32.2705 29.4464 32.0928 29.9796C31.7756 31.4004 31.6174 32.1683 31.6172 32.2833C31.6172 33.1212 32.2012 33.5401 33.3691 33.5401C33.9151 33.5399 34.8294 33.0702 36.1113 32.1309C35.8955 31.5343 35.7871 30.963 35.7871 30.4171C35.7871 29.6173 35.9522 28.8047 36.2822 27.9796C36.6123 27.1417 37.1016 26.1836 37.749 25.1046ZM94.7412 24.6475C91.4407 26.1582 89.086 27.4406 87.6768 28.4942C86.2803 29.5479 85.582 30.6339 85.582 31.7511C85.5821 32.1571 85.6514 32.4934 85.791 32.7598C85.9307 33.0138 86.1211 33.1407 86.3623 33.1407C86.502 33.1407 86.75 33.0518 87.1055 32.8741C88.4383 32.087 89.6573 31.0654 90.7617 29.8087C91.8662 28.5391 93.1924 26.8184 94.7412 24.6475Z" fill="#7353F7"/>
</g>
</svg>
