<svg width="194" height="51" viewBox="0 0 194 51" fill="none" xmlns="http://www.w3.org/2000/svg">
<path d="M192.969 32.0996C192.717 34.6229 192.703 34.7767 192.703 34.7861L192.705 34.7871C192.706 34.7872 192.708 34.787 192.709 34.7871L192.709 34.7881C192.69 34.7868 192.651 34.7836 192.592 34.7812C192.476 34.7765 192.284 34.7729 192.031 34.7803C191.522 34.7951 190.774 34.8553 189.887 35.042C188.116 35.415 185.829 36.2816 183.719 38.2666C181.663 40.202 180.34 43.061 179.535 45.6514C179.142 46.9148 178.894 48.045 178.745 48.8545C178.671 49.2578 178.622 49.5785 178.592 49.791C178.583 49.862 178.575 49.9209 178.569 49.9668L178.569 50.0996L173.17 50.0996L173.17 49.9668C173.164 49.9209 173.156 49.862 173.146 49.791C173.116 49.5785 173.068 49.2578 172.994 48.8545C172.845 48.045 172.597 46.9148 172.204 45.6514C171.399 43.061 170.075 40.202 168.019 38.2666C165.91 36.2816 163.623 35.415 161.851 35.042C160.964 34.8553 160.217 34.7951 159.708 34.7803C159.454 34.7729 159.263 34.7765 159.146 34.7812C159.088 34.7836 159.049 34.7868 159.03 34.7881L159.03 34.7871C159.031 34.787 159.033 34.7872 159.034 34.7871L159.036 34.7861C159.036 34.7767 159.022 34.6227 158.769 32.0996C158.512 29.5234 158.503 29.4175 158.504 29.4131L158.506 29.4131C158.507 29.4129 158.51 29.4123 158.511 29.4121C158.515 29.4117 158.52 29.4115 158.524 29.4111C158.533 29.4103 158.544 29.4092 158.555 29.4082C158.58 29.4061 158.61 29.4039 158.646 29.4014C158.718 29.3963 158.813 29.3904 158.928 29.3857C159.16 29.3764 159.477 29.3715 159.865 29.3828C160.64 29.4054 161.712 29.4947 162.963 29.7578C165.466 30.2848 168.729 31.5193 171.719 34.334C172.242 34.8261 172.724 35.3488 173.17 35.8916L173.17 -8.77089e-07L178.569 -6.41073e-07L178.569 35.8916C179.014 35.3488 179.496 34.8261 180.019 34.334C183.01 31.5193 186.273 30.2848 188.776 29.7578C190.026 29.4947 191.098 29.4055 191.874 29.3828C192.262 29.3715 192.579 29.3764 192.81 29.3857C192.926 29.3904 193.021 29.3963 193.092 29.4014C193.128 29.4039 193.159 29.4061 193.183 29.4082C193.195 29.4092 193.206 29.4103 193.215 29.4111C193.219 29.4115 193.224 29.4117 193.227 29.4121C193.229 29.4123 193.231 29.4129 193.233 29.4131L193.235 29.4131C193.236 29.4176 193.227 29.5238 192.969 32.0996Z" fill="#7353F7"/>
<circle cx="123.219" cy="25.3496" r="6.6" fill="#87FFDC"/>
<circle cx="131.019" cy="25.3496" r="6.6" fill="#3ACEFF"/>
<circle cx="138.819" cy="25.3496" r="6.6" fill="#7353F7"/>
<path d="M70.9893 22.3049C71.332 22.3049 71.6621 22.4827 71.9795 22.8381C72.3095 23.1935 72.4745 23.5618 72.4746 23.9426C72.4746 24.1838 72.2969 24.5715 71.9414 25.1047C71.5986 25.6379 71.0458 26.3167 70.2842 27.1418C69.5352 27.9542 68.4882 28.9319 67.1426 30.0744L66.7803 31.1223C66.6788 31.3252 66.6279 31.5032 66.6279 31.6555C66.628 31.998 66.7999 32.1691 67.1426 32.1691C67.498 32.1691 68.3294 31.7187 69.6367 30.8176C70.957 29.9162 72.3857 28.7033 73.9219 27.1799C74.5184 26.5833 75.0137 26.0568 75.4072 25.5998C75.8008 25.1428 76.1562 24.717 76.4736 24.3234C76.7909 23.9173 77.0508 23.6125 77.2539 23.4094C77.4695 23.2064 77.6603 23.099 77.8252 23.0861C78.1425 23.048 78.3906 23.181 78.5684 23.4855C78.7461 23.7902 78.835 24.2414 78.835 24.8381C78.8349 25.1808 78.6825 25.6126 78.3779 26.133C78.0732 26.6408 77.5018 27.5169 76.6641 28.7609C75.8262 29.9923 74.9882 31.2747 74.1504 32.6076C73.3252 33.9279 72.4804 35.4192 71.6172 37.0822C71.6553 37.0441 72.043 36.6633 72.7793 35.9396C73.5282 35.2161 74.3155 34.461 75.1406 33.674C75.9657 32.887 76.6446 32.258 77.1777 31.7883C77.7109 31.3058 78.3779 30.7473 79.1777 30.1125V31.3889C77.4639 33.2296 75.9082 34.9748 74.5117 36.6252C73.128 38.2754 72.0556 39.5959 71.2939 40.5861C70.5449 41.5764 70.1064 42.1545 69.9795 42.3195C69.6369 42.7636 69.3261 43.1761 69.0469 43.5568C68.7803 43.9504 68.5518 44.2492 68.3613 44.4523C68.1836 44.6681 68.0371 44.7756 67.9229 44.7756C67.6564 44.7753 67.4149 44.5087 67.1992 43.9758C66.9962 43.4555 66.8946 42.9922 66.8945 42.5861C66.8945 42.218 66.9648 41.8937 67.1045 41.6144C68.0186 39.5578 70.0686 35.9842 73.2549 30.8937L69.8652 33.7687C68.253 35.1778 67.1738 35.883 66.6279 35.883C66.1329 35.8826 65.6121 35.3172 65.0664 34.1877C64.5207 33.0454 64.2481 32.0489 64.248 31.1984C64.248 30.475 64.3556 29.8653 64.5713 29.3703C64.7998 28.8625 65.1875 28.2082 65.7334 27.4084C66.5077 26.3294 67.2501 25.4152 67.9609 24.6662C68.6718 23.9172 69.3008 23.34 69.8467 22.9338C70.3926 22.5148 70.7734 22.3049 70.9893 22.3049ZM20.7949 13.2599C22.623 13.2599 24.0322 13.3996 25.0225 13.6789C26.0254 13.9582 26.5273 14.3898 26.5273 14.9738C26.5273 15.926 26.3936 16.6623 26.127 17.1828C25.873 17.7033 25.5938 18.0529 25.2891 18.2307C24.997 18.3957 24.4764 18.6243 23.7275 18.9162C22.9278 19.1955 22.2295 19.4875 21.6328 19.7922C21.049 20.0968 20.5478 20.3889 20.1289 20.6682C19.71 20.9474 19.4492 21.0871 19.3477 21.0871C19.2209 21.0871 19.1574 21.036 19.1572 20.9348C19.1572 20.7189 19.3799 20.3947 19.8242 19.9631C20.2812 19.5188 20.84 19.132 21.5 18.8019C22.1981 18.4338 22.5469 18.1984 22.5469 18.0969C22.5469 17.9319 22.1598 17.8498 21.3857 17.8498C19.0373 17.8498 16.8661 18.0588 14.873 18.4777C12.88 18.8966 11.3057 19.4494 10.1504 20.1349C9.00781 20.8205 8.43652 21.5187 8.43652 22.2297C8.4367 22.6738 8.67107 22.9915 9.14062 23.1818C9.62312 23.3596 10.6769 23.6643 12.3018 24.0959C13.9267 24.5275 15.3809 25.0227 16.6631 25.5812C18.5036 26.3683 19.8683 27.1868 20.7568 28.0373C21.6455 28.8879 22.0898 29.84 22.0898 30.8937C22.0898 31.6174 21.9121 32.3478 21.5566 33.0842C21.2139 33.8076 20.7059 34.4739 20.0332 35.0832C19.3604 35.6926 18.5859 36.1945 17.71 36.5881C16.9611 36.9054 16.0153 37.2034 14.873 37.4826C13.7433 37.7619 12.5115 37.9777 11.1787 38.1301C9.8584 38.2951 8.59473 38.3781 7.38867 38.3781C5.16699 38.3781 3.37695 38.1682 2.01855 37.7492C0.672852 37.3303 0 36.6955 0 35.8449C3.58923e-07 35.4641 0.228656 34.874 0.685547 34.0744C1.14258 33.2619 1.68262 32.716 2.30469 32.4367C2.85049 32.2209 3.37703 32.0998 3.88477 32.0744C4.39258 32.0363 4.64648 32.0939 4.64648 32.2463C4.64632 32.2842 4.62777 32.3226 4.58984 32.3605C4.55176 32.3986 4.50684 32.4299 4.45605 32.4553L4.30371 32.5314C4.04994 32.6329 3.84078 32.716 3.67578 32.7795C3.52361 32.8302 3.39643 32.887 3.29492 32.9504C3.20605 33.0012 3.16113 33.0773 3.16113 33.1789C3.16113 33.4455 4.47559 33.5793 7.10352 33.5793C9.38845 33.5793 11.2608 33.4963 12.7207 33.3312C14.1807 33.1662 15.4697 32.8683 16.5869 32.4367C17.704 32.0051 18.7198 31.4083 19.6338 30.6467C19.3164 30.0627 18.8398 29.5353 18.2051 29.0656C17.5705 28.596 16.8533 28.2218 16.0537 27.9426C15.2668 27.6506 14.4412 27.4348 13.5781 27.2951C11.0137 26.9142 8.62012 26.0822 6.39844 24.8C6.20801 24.6984 6.00488 24.4826 5.78906 24.1525C5.57324 23.8224 5.46582 23.5051 5.46582 23.2004C5.46582 22.0832 5.64941 20.966 6.01758 19.8488C6.39838 18.7191 6.88097 17.8371 7.46484 17.2023C8.4043 16.1486 10.0928 15.2277 12.5303 14.4406C14.9805 13.6535 17.7354 13.2599 20.7949 13.2599ZM95.4463 21.5627C95.7127 21.5628 95.9601 21.6771 96.1885 21.9055C96.417 22.1213 96.5947 22.3752 96.7217 22.6672C96.8613 22.9592 96.9316 23.175 96.9316 23.3146C96.9316 23.5431 96.8427 23.715 96.665 23.8293C96.4873 23.9308 96.1758 24.0578 95.7314 24.2101C95.8203 24.4132 95.9347 24.6732 96.0742 24.9904C96.2139 25.3078 96.3223 25.5685 96.3984 25.7717C96.4744 25.9619 96.5127 26.1332 96.5127 26.2853C96.5127 26.59 96.2012 27.1613 95.5791 27.9992C94.9697 28.8244 94.5381 29.4338 94.2842 29.8273C94.043 30.2209 93.9229 30.7033 93.9229 31.2746C93.9229 32.2141 94.3545 32.6838 95.2178 32.6838C96.1064 32.6835 97.4966 31.8523 99.3877 30.1896V31.3508C96.1758 34.9182 93.8779 36.7023 92.4941 36.7023C91.9992 36.7023 91.6436 36.5371 91.4277 36.2072C91.2246 35.8898 91.123 35.4133 91.123 34.7785C91.123 33.7756 91.4854 32.3223 92.209 30.4182C90.3555 32.4748 88.9775 33.9406 88.0762 34.8166C87.1751 35.6796 86.4325 36.1113 85.8486 36.1115C85.5693 36.1115 85.2197 35.8703 84.8008 35.3879C84.3819 34.9055 84.0078 34.2833 83.6777 33.5217C83.3604 32.7473 83.2012 31.9474 83.2012 31.1223C83.2012 30.5256 83.2588 30.0305 83.373 29.6369C83.4873 29.2308 83.7092 28.8184 84.0391 28.3996C84.3691 27.9807 84.8965 27.4279 85.6201 26.7424C87.5496 24.9906 89.422 23.6896 91.2373 22.8391C93.0527 21.9885 94.4561 21.5627 95.4463 21.5627ZM58.7012 22.8957C58.9043 22.8957 59.1016 23.175 59.292 23.7336C59.4951 24.2921 59.5967 24.8577 59.5967 25.4289C59.5964 25.7082 59.3229 26.1333 58.7773 26.7043C56.543 29.1926 55.4258 30.926 55.4258 31.9035C55.4259 32.4491 55.6486 32.7219 56.0928 32.7219C56.4609 32.7217 56.9368 32.5313 57.5205 32.1506C58.1171 31.757 59.0441 31.0655 60.3008 30.0754V31.3889C58.4981 33.1662 57.1143 34.4484 56.1494 35.2355C55.1846 36.0226 54.3975 36.4162 53.7881 36.4162C52.7471 36.4162 52.2266 35.7306 52.2266 34.3596C52.2266 33.9535 52.2901 33.5537 52.417 33.1603C52.5439 32.7668 52.7159 32.3605 52.9316 31.9416C53.1601 31.51 53.503 30.9005 53.96 30.1135C54.4169 29.3138 54.9435 28.4121 55.54 27.4094C54.8165 27.7775 53.909 28.5073 52.8174 29.5988C52.1064 30.2844 51.5029 30.9387 51.0078 31.5607C50.5128 32.17 49.9794 32.8558 49.4082 33.6174C48.8497 34.3662 48.4375 34.8742 48.1709 35.1408C47.917 35.3947 47.6562 35.5217 47.3896 35.5217C46.9834 35.5216 46.6093 35.0958 46.2666 34.2453C45.9238 33.3947 45.752 32.4045 45.752 31.2746C45.752 30.5764 45.8281 30.0305 45.9805 29.6369C46.1455 29.2434 46.4629 28.6847 46.9326 27.9611C47.8086 26.6154 48.5645 25.632 49.1992 25.0099C49.834 24.3752 50.4434 24.0578 51.0273 24.0578C51.4334 24.0579 51.7569 24.1272 51.998 24.2668C52.252 24.4064 52.3789 24.6223 52.3789 24.9142C52.3789 25.0412 52.3408 25.175 52.2646 25.3146C52.1885 25.4541 52.0995 25.5813 51.998 25.6955C51.9091 25.8098 51.7125 26.0319 51.4082 26.3615C49.4023 28.5832 48.3994 30.0246 48.3994 30.6848C48.3995 31.0526 48.5197 31.2365 48.7607 31.2365C48.9131 31.2365 49.2051 30.9953 49.6367 30.5129C50.081 30.0178 50.6465 29.3771 51.332 28.59C52.0303 27.7902 52.8486 26.9582 53.7881 26.0949C54.7402 25.2317 55.8194 24.4005 57.0254 23.6008C57.6982 23.1311 58.2568 22.8957 58.7012 22.8957ZM37.6152 22.4572C38.2119 22.4572 38.6816 22.5529 39.0244 22.7433C39.3672 22.9211 39.5391 23.175 39.5391 23.5051C39.539 23.7589 39.3925 24.0511 39.1006 24.381C39.5829 24.4826 39.9131 24.6536 40.0908 24.8947C40.2686 25.1232 40.3574 25.549 40.3574 26.1711C40.3574 26.7803 40.2118 27.5483 39.9199 28.4748C39.6406 29.4016 39.2529 30.2717 38.7578 31.0842L39.1006 31.4269H39.3867C39.6023 31.4269 39.8117 31.376 40.0146 31.2746C40.2304 31.1604 40.4209 31.046 40.5859 30.9318C40.751 30.8049 41.1133 30.5314 41.6719 30.1125V31.3889C40.8341 32.1505 40.1611 32.6584 39.6533 32.9123C39.1455 33.1662 38.415 33.2678 37.4629 33.217C35.8127 35.1717 34.3592 36.1494 33.1025 36.1496C32.3917 36.1496 31.7441 35.9142 31.1602 35.4445C30.5763 34.9749 30.1064 34.334 29.751 33.5217C29.4082 32.7092 29.2363 31.801 29.2363 30.798C29.2364 29.9856 29.503 29.0841 30.0361 28.0939C30.582 27.1038 31.2804 26.1837 32.1309 25.3332C32.9941 24.4699 33.915 23.7775 34.8926 23.257C35.8699 22.724 36.7775 22.4572 37.6152 22.4572ZM37.749 25.1047C36.6955 25.7393 35.7939 26.3167 35.0449 26.8371C34.296 27.3448 33.6611 27.8655 33.1406 28.3986C32.6201 28.9191 32.2705 29.4465 32.0928 29.9797C31.7756 31.4005 31.6174 32.1684 31.6172 32.2834C31.6172 33.1213 32.2012 33.5402 33.3691 33.5402C33.9151 33.54 34.8294 33.0703 36.1113 32.131C35.8955 31.5344 35.7871 30.9631 35.7871 30.4172C35.7871 29.6174 35.9522 28.8048 36.2822 27.9797C36.6123 27.1418 37.1016 26.1837 37.749 25.1047ZM94.7412 24.6476C91.4407 26.1583 89.086 27.4407 87.6768 28.4943C86.2803 29.548 85.582 30.634 85.582 31.7512C85.5821 32.1572 85.6514 32.4935 85.791 32.7599C85.9307 33.0139 86.1211 33.1408 86.3623 33.1408C86.502 33.1408 86.75 33.0519 87.1055 32.8742C88.4383 32.0871 89.6573 31.0655 90.7617 29.8088C91.8662 28.5392 93.1924 26.8185 94.7412 24.6476Z" fill="#7353F7"/>
</svg>
